<mxfile host="Electron" modified="2023-06-19T11:25:44.892Z" agent="Mozilla/5.0 (Macintosh; Intel Mac OS X 10_15_7) AppleWebKit/537.36 (KHTML, like Gecko) draw.io/21.2.8 Chrome/112.0.5615.165 Electron/24.2.0 Safari/537.36" etag="m8Brkizpx-xA6cBpsR4u" version="21.2.8" type="device" pages="5">
  <diagram name="1. One-to-One Service" id="2YBvvXClWsGukQMizWep">
    <mxGraphModel dx="1306" dy="811" grid="1" gridSize="10" guides="1" tooltips="1" connect="1" arrows="1" fold="1" page="1" pageScale="1" pageWidth="850" pageHeight="1100" math="0" shadow="0">
      <root>
        <mxCell id="0" />
        <mxCell id="1" parent="0" />
        <mxCell id="vMhwtUkk92McPzn8KWq_-1" value="User Management&lt;br&gt;Service" style="rounded=0;whiteSpace=wrap;html=1;fillColor=#dae8fc;strokeColor=#6c8ebf;" parent="1" vertex="1">
          <mxGeometry x="180" y="50" width="120" height="60" as="geometry" />
        </mxCell>
        <mxCell id="vMhwtUkk92McPzn8KWq_-2" value="Accounting Service" style="rounded=0;whiteSpace=wrap;html=1;fillColor=#f8cecc;strokeColor=#b85450;" parent="1" vertex="1">
          <mxGeometry x="180" y="220" width="120" height="60" as="geometry" />
        </mxCell>
        <mxCell id="vMhwtUkk92McPzn8KWq_-3" value="" style="endArrow=classic;html=1;rounded=0;exitX=0.5;exitY=0;exitDx=0;exitDy=0;" parent="1" source="vMhwtUkk92McPzn8KWq_-2" target="vMhwtUkk92McPzn8KWq_-1" edge="1">
          <mxGeometry width="50" height="50" relative="1" as="geometry">
            <mxPoint x="300" y="350" as="sourcePoint" />
            <mxPoint x="350" y="300" as="targetPoint" />
          </mxGeometry>
        </mxCell>
        <mxCell id="vMhwtUkk92McPzn8KWq_-4" value="Request User Info" style="edgeLabel;html=1;align=center;verticalAlign=middle;resizable=0;points=[];" parent="vMhwtUkk92McPzn8KWq_-3" vertex="1" connectable="0">
          <mxGeometry x="-0.1985" y="1" relative="1" as="geometry">
            <mxPoint x="1" as="offset" />
          </mxGeometry>
        </mxCell>
      </root>
    </mxGraphModel>
  </diagram>
  <diagram id="zNXtOOr3SQ-DR57EHMuo" name="2. One-to-many">
    <mxGraphModel dx="1306" dy="811" grid="1" gridSize="10" guides="1" tooltips="1" connect="1" arrows="1" fold="1" page="1" pageScale="1" pageWidth="827" pageHeight="1169" math="0" shadow="0">
      <root>
        <mxCell id="0" />
        <mxCell id="1" parent="0" />
        <mxCell id="7NkdLn3xQdVWbXAN1BmN-1" value="User Management&lt;br&gt;Service" style="rounded=0;whiteSpace=wrap;html=1;fillColor=#dae8fc;strokeColor=#6c8ebf;" parent="1" vertex="1">
          <mxGeometry x="180" y="50" width="120" height="60" as="geometry" />
        </mxCell>
        <mxCell id="7NkdLn3xQdVWbXAN1BmN-2" value="Accounting Service" style="rounded=0;whiteSpace=wrap;html=1;fillColor=#f8cecc;strokeColor=#b85450;" parent="1" vertex="1">
          <mxGeometry x="40" y="210" width="120" height="60" as="geometry" />
        </mxCell>
        <mxCell id="7NkdLn3xQdVWbXAN1BmN-3" value="" style="endArrow=classic;html=1;rounded=0;exitX=0.5;exitY=0;exitDx=0;exitDy=0;" parent="1" source="7NkdLn3xQdVWbXAN1BmN-2" target="7NkdLn3xQdVWbXAN1BmN-1" edge="1">
          <mxGeometry width="50" height="50" relative="1" as="geometry">
            <mxPoint x="300" y="350" as="sourcePoint" />
            <mxPoint x="350" y="300" as="targetPoint" />
            <Array as="points">
              <mxPoint x="100" y="80" />
            </Array>
          </mxGeometry>
        </mxCell>
        <mxCell id="7NkdLn3xQdVWbXAN1BmN-4" value="Request User Info" style="edgeLabel;html=1;align=center;verticalAlign=middle;resizable=0;points=[];" parent="7NkdLn3xQdVWbXAN1BmN-3" vertex="1" connectable="0">
          <mxGeometry x="-0.1985" y="1" relative="1" as="geometry">
            <mxPoint x="1" as="offset" />
          </mxGeometry>
        </mxCell>
        <mxCell id="7NkdLn3xQdVWbXAN1BmN-5" value="Statistics Service" style="rounded=0;whiteSpace=wrap;html=1;fillColor=#f8cecc;strokeColor=#b85450;" parent="1" vertex="1">
          <mxGeometry x="180" y="210" width="120" height="60" as="geometry" />
        </mxCell>
        <mxCell id="7NkdLn3xQdVWbXAN1BmN-6" value="Mail Service" style="rounded=0;whiteSpace=wrap;html=1;fillColor=#f8cecc;strokeColor=#b85450;" parent="1" vertex="1">
          <mxGeometry x="330" y="210" width="120" height="60" as="geometry" />
        </mxCell>
        <mxCell id="7NkdLn3xQdVWbXAN1BmN-7" value="" style="endArrow=classic;html=1;rounded=0;entryX=1;entryY=0.5;entryDx=0;entryDy=0;" parent="1" source="7NkdLn3xQdVWbXAN1BmN-6" target="7NkdLn3xQdVWbXAN1BmN-1" edge="1">
          <mxGeometry width="50" height="50" relative="1" as="geometry">
            <mxPoint x="110" y="220" as="sourcePoint" />
            <mxPoint x="190" y="90" as="targetPoint" />
            <Array as="points">
              <mxPoint x="390" y="80" />
            </Array>
          </mxGeometry>
        </mxCell>
        <mxCell id="7NkdLn3xQdVWbXAN1BmN-8" value="Request User Info" style="edgeLabel;html=1;align=center;verticalAlign=middle;resizable=0;points=[];" parent="7NkdLn3xQdVWbXAN1BmN-7" vertex="1" connectable="0">
          <mxGeometry x="-0.1985" y="1" relative="1" as="geometry">
            <mxPoint x="1" as="offset" />
          </mxGeometry>
        </mxCell>
        <mxCell id="7NkdLn3xQdVWbXAN1BmN-9" value="" style="endArrow=classic;html=1;rounded=0;entryX=0.5;entryY=1;entryDx=0;entryDy=0;exitX=0.5;exitY=0;exitDx=0;exitDy=0;" parent="1" source="7NkdLn3xQdVWbXAN1BmN-5" target="7NkdLn3xQdVWbXAN1BmN-1" edge="1">
          <mxGeometry width="50" height="50" relative="1" as="geometry">
            <mxPoint x="400" y="220" as="sourcePoint" />
            <mxPoint x="310" y="90" as="targetPoint" />
            <Array as="points" />
          </mxGeometry>
        </mxCell>
        <mxCell id="7NkdLn3xQdVWbXAN1BmN-10" value="Request User Info" style="edgeLabel;html=1;align=center;verticalAlign=middle;resizable=0;points=[];" parent="7NkdLn3xQdVWbXAN1BmN-9" vertex="1" connectable="0">
          <mxGeometry x="-0.1985" y="1" relative="1" as="geometry">
            <mxPoint x="1" as="offset" />
          </mxGeometry>
        </mxCell>
      </root>
    </mxGraphModel>
  </diagram>
  <diagram id="sLTfV-Mv8x6k5jD3IU0b" name="3. many-to-many">
    <mxGraphModel dx="2014" dy="737" grid="1" gridSize="10" guides="1" tooltips="1" connect="1" arrows="1" fold="1" page="1" pageScale="1" pageWidth="827" pageHeight="1169" math="0" shadow="0">
      <root>
        <mxCell id="0" />
        <mxCell id="1" parent="0" />
        <mxCell id="_6pNPz45x10l2pBfpzJO-1" value="User Management&lt;br&gt;Service" style="rounded=0;whiteSpace=wrap;html=1;fillColor=#dae8fc;strokeColor=#6c8ebf;" parent="1" vertex="1">
          <mxGeometry x="180" y="50" width="120" height="60" as="geometry" />
        </mxCell>
        <mxCell id="_6pNPz45x10l2pBfpzJO-2" value="Accounting Service" style="rounded=0;whiteSpace=wrap;html=1;fillColor=#f8cecc;strokeColor=#b85450;" parent="1" vertex="1">
          <mxGeometry x="40" y="210" width="120" height="60" as="geometry" />
        </mxCell>
        <mxCell id="_6pNPz45x10l2pBfpzJO-3" value="" style="endArrow=classic;html=1;rounded=0;exitX=0.5;exitY=0;exitDx=0;exitDy=0;" parent="1" source="_6pNPz45x10l2pBfpzJO-2" target="_6pNPz45x10l2pBfpzJO-1" edge="1">
          <mxGeometry width="50" height="50" relative="1" as="geometry">
            <mxPoint x="300" y="350" as="sourcePoint" />
            <mxPoint x="350" y="300" as="targetPoint" />
            <Array as="points">
              <mxPoint x="100" y="80" />
            </Array>
          </mxGeometry>
        </mxCell>
        <mxCell id="_6pNPz45x10l2pBfpzJO-4" value="Request User Info" style="edgeLabel;html=1;align=center;verticalAlign=middle;resizable=0;points=[];" parent="_6pNPz45x10l2pBfpzJO-3" vertex="1" connectable="0">
          <mxGeometry x="-0.1985" y="1" relative="1" as="geometry">
            <mxPoint x="11" y="-45" as="offset" />
          </mxGeometry>
        </mxCell>
        <mxCell id="_6pNPz45x10l2pBfpzJO-5" value="Mail Service" style="rounded=0;whiteSpace=wrap;html=1;fillColor=#f8cecc;strokeColor=#b85450;" parent="1" vertex="1">
          <mxGeometry x="180" y="210" width="120" height="60" as="geometry" />
        </mxCell>
        <mxCell id="_6pNPz45x10l2pBfpzJO-6" value="Statistics Service" style="rounded=0;whiteSpace=wrap;html=1;fillColor=#f8cecc;strokeColor=#b85450;" parent="1" vertex="1">
          <mxGeometry x="330" y="210" width="120" height="60" as="geometry" />
        </mxCell>
        <mxCell id="_6pNPz45x10l2pBfpzJO-7" value="" style="endArrow=classic;html=1;rounded=0;entryX=1;entryY=0.5;entryDx=0;entryDy=0;" parent="1" source="_6pNPz45x10l2pBfpzJO-6" target="_6pNPz45x10l2pBfpzJO-1" edge="1">
          <mxGeometry width="50" height="50" relative="1" as="geometry">
            <mxPoint x="110" y="220" as="sourcePoint" />
            <mxPoint x="190" y="90" as="targetPoint" />
            <Array as="points">
              <mxPoint x="390" y="80" />
            </Array>
          </mxGeometry>
        </mxCell>
        <mxCell id="_6pNPz45x10l2pBfpzJO-8" value="Request User Info" style="edgeLabel;html=1;align=center;verticalAlign=middle;resizable=0;points=[];" parent="_6pNPz45x10l2pBfpzJO-7" vertex="1" connectable="0">
          <mxGeometry x="-0.1985" y="1" relative="1" as="geometry">
            <mxPoint x="-19" y="-42" as="offset" />
          </mxGeometry>
        </mxCell>
        <mxCell id="_6pNPz45x10l2pBfpzJO-9" value="" style="endArrow=classic;html=1;rounded=0;entryX=0.5;entryY=1;entryDx=0;entryDy=0;exitX=0.5;exitY=0;exitDx=0;exitDy=0;" parent="1" source="_6pNPz45x10l2pBfpzJO-5" target="_6pNPz45x10l2pBfpzJO-1" edge="1">
          <mxGeometry width="50" height="50" relative="1" as="geometry">
            <mxPoint x="400" y="220" as="sourcePoint" />
            <mxPoint x="310" y="90" as="targetPoint" />
            <Array as="points" />
          </mxGeometry>
        </mxCell>
        <mxCell id="_6pNPz45x10l2pBfpzJO-10" value="Request User Info" style="edgeLabel;html=1;align=center;verticalAlign=middle;resizable=0;points=[];" parent="_6pNPz45x10l2pBfpzJO-9" vertex="1" connectable="0">
          <mxGeometry x="-0.1985" y="1" relative="1" as="geometry">
            <mxPoint x="1" y="-30" as="offset" />
          </mxGeometry>
        </mxCell>
        <mxCell id="_6pNPz45x10l2pBfpzJO-11" value="Permission Management&lt;br&gt;Service" style="rounded=0;whiteSpace=wrap;html=1;fillColor=#dae8fc;strokeColor=#6c8ebf;" parent="1" vertex="1">
          <mxGeometry x="-130" y="50" width="120" height="60" as="geometry" />
        </mxCell>
        <mxCell id="_6pNPz45x10l2pBfpzJO-12" value="" style="endArrow=classic;html=1;rounded=0;" parent="1" source="_6pNPz45x10l2pBfpzJO-2" target="_6pNPz45x10l2pBfpzJO-11" edge="1">
          <mxGeometry width="50" height="50" relative="1" as="geometry">
            <mxPoint x="110" y="220" as="sourcePoint" />
            <mxPoint x="190" y="90" as="targetPoint" />
            <Array as="points">
              <mxPoint x="20" y="160" />
            </Array>
          </mxGeometry>
        </mxCell>
        <mxCell id="_6pNPz45x10l2pBfpzJO-13" value="Request Permission&lt;br&gt;Info" style="edgeLabel;html=1;align=center;verticalAlign=middle;resizable=0;points=[];" parent="_6pNPz45x10l2pBfpzJO-12" vertex="1" connectable="0">
          <mxGeometry x="-0.1985" y="1" relative="1" as="geometry">
            <mxPoint x="1" as="offset" />
          </mxGeometry>
        </mxCell>
        <mxCell id="_6pNPz45x10l2pBfpzJO-15" value="Audit&lt;br&gt;Service" style="rounded=0;whiteSpace=wrap;html=1;fillColor=#dae8fc;strokeColor=#6c8ebf;" parent="1" vertex="1">
          <mxGeometry x="520" y="50" width="120" height="60" as="geometry" />
        </mxCell>
        <mxCell id="_6pNPz45x10l2pBfpzJO-16" value="" style="endArrow=classic;html=1;rounded=0;" parent="1" target="_6pNPz45x10l2pBfpzJO-15" edge="1">
          <mxGeometry width="50" height="50" relative="1" as="geometry">
            <mxPoint x="390" y="210" as="sourcePoint" />
            <mxPoint x="-26" y="120" as="targetPoint" />
            <Array as="points">
              <mxPoint x="390" y="210" />
            </Array>
          </mxGeometry>
        </mxCell>
        <mxCell id="_6pNPz45x10l2pBfpzJO-17" value="Request Audit&lt;br&gt;&amp;nbsp;Info" style="edgeLabel;html=1;align=center;verticalAlign=middle;resizable=0;points=[];" parent="_6pNPz45x10l2pBfpzJO-16" vertex="1" connectable="0">
          <mxGeometry x="-0.1985" y="1" relative="1" as="geometry">
            <mxPoint x="1" as="offset" />
          </mxGeometry>
        </mxCell>
        <mxCell id="_6pNPz45x10l2pBfpzJO-18" value="" style="endArrow=classic;html=1;rounded=0;exitX=0.5;exitY=0;exitDx=0;exitDy=0;entryX=1;entryY=0.5;entryDx=0;entryDy=0;" parent="1" source="_6pNPz45x10l2pBfpzJO-5" target="_6pNPz45x10l2pBfpzJO-11" edge="1">
          <mxGeometry width="50" height="50" relative="1" as="geometry">
            <mxPoint x="80" y="220" as="sourcePoint" />
            <mxPoint x="-26" y="120" as="targetPoint" />
            <Array as="points">
              <mxPoint x="80" y="130" />
            </Array>
          </mxGeometry>
        </mxCell>
        <mxCell id="_6pNPz45x10l2pBfpzJO-19" value="Request&amp;nbsp;&lt;br&gt;Permission&lt;br&gt;Info" style="edgeLabel;html=1;align=center;verticalAlign=middle;resizable=0;points=[];" parent="_6pNPz45x10l2pBfpzJO-18" vertex="1" connectable="0">
          <mxGeometry x="-0.1985" y="1" relative="1" as="geometry">
            <mxPoint x="22" y="15" as="offset" />
          </mxGeometry>
        </mxCell>
        <mxCell id="_6pNPz45x10l2pBfpzJO-20" value="" style="endArrow=classic;html=1;rounded=0;entryX=0;entryY=0.5;entryDx=0;entryDy=0;" parent="1" target="_6pNPz45x10l2pBfpzJO-15" edge="1">
          <mxGeometry width="50" height="50" relative="1" as="geometry">
            <mxPoint x="240" y="210" as="sourcePoint" />
            <mxPoint x="546" y="120" as="targetPoint" />
            <Array as="points">
              <mxPoint x="240" y="210" />
            </Array>
          </mxGeometry>
        </mxCell>
        <mxCell id="_6pNPz45x10l2pBfpzJO-21" value="Request Audit&lt;br&gt;&amp;nbsp;Info" style="edgeLabel;html=1;align=center;verticalAlign=middle;resizable=0;points=[];" parent="_6pNPz45x10l2pBfpzJO-20" vertex="1" connectable="0">
          <mxGeometry x="-0.1985" y="1" relative="1" as="geometry">
            <mxPoint x="-32" y="13" as="offset" />
          </mxGeometry>
        </mxCell>
      </root>
    </mxGraphModel>
  </diagram>
  <diagram name="event-bus" id="UQhZt5zPk0SAnpH29GA3">
    <mxGraphModel dx="1306" dy="811" grid="1" gridSize="10" guides="1" tooltips="1" connect="1" arrows="1" fold="1" page="1" pageScale="1" pageWidth="827" pageHeight="1169" math="0" shadow="0">
      <root>
        <mxCell id="gwxealR5jL427xhSwZlq-0" />
        <mxCell id="gwxealR5jL427xhSwZlq-1" parent="gwxealR5jL427xhSwZlq-0" />
        <mxCell id="gwxealR5jL427xhSwZlq-2" value="User Management&lt;br&gt;Service" style="rounded=0;whiteSpace=wrap;html=1;fillColor=#dae8fc;strokeColor=#6c8ebf;" parent="gwxealR5jL427xhSwZlq-1" vertex="1">
          <mxGeometry x="180" y="50" width="120" height="60" as="geometry" />
        </mxCell>
        <mxCell id="gwxealR5jL427xhSwZlq-3" value="Accounting Service" style="rounded=0;whiteSpace=wrap;html=1;fillColor=#f8cecc;strokeColor=#b85450;" parent="gwxealR5jL427xhSwZlq-1" vertex="1">
          <mxGeometry x="40" y="260" width="120" height="60" as="geometry" />
        </mxCell>
        <mxCell id="gwxealR5jL427xhSwZlq-6" value="Mail&amp;nbsp;Service" style="rounded=0;whiteSpace=wrap;html=1;fillColor=#f8cecc;strokeColor=#b85450;" parent="gwxealR5jL427xhSwZlq-1" vertex="1">
          <mxGeometry x="180" y="260" width="120" height="60" as="geometry" />
        </mxCell>
        <mxCell id="gwxealR5jL427xhSwZlq-7" value="Statistics Service" style="rounded=0;whiteSpace=wrap;html=1;fillColor=#f8cecc;strokeColor=#b85450;" parent="gwxealR5jL427xhSwZlq-1" vertex="1">
          <mxGeometry x="330" y="260" width="120" height="60" as="geometry" />
        </mxCell>
        <mxCell id="gwxealR5jL427xhSwZlq-12" value="Permission Management&lt;br&gt;Service" style="rounded=0;whiteSpace=wrap;html=1;fillColor=#dae8fc;strokeColor=#6c8ebf;" parent="gwxealR5jL427xhSwZlq-1" vertex="1">
          <mxGeometry x="20" y="50" width="120" height="60" as="geometry" />
        </mxCell>
        <mxCell id="gwxealR5jL427xhSwZlq-15" value="Audit&lt;br&gt;Service" style="rounded=0;whiteSpace=wrap;html=1;fillColor=#dae8fc;strokeColor=#6c8ebf;" parent="gwxealR5jL427xhSwZlq-1" vertex="1">
          <mxGeometry x="340" y="50" width="120" height="60" as="geometry" />
        </mxCell>
        <mxCell id="axD1EVpp38-owQ8rnh4v-1" value="Event Bus" style="ellipse;shape=cloud;whiteSpace=wrap;html=1;" parent="gwxealR5jL427xhSwZlq-1" vertex="1">
          <mxGeometry x="180" y="140" width="120" height="80" as="geometry" />
        </mxCell>
        <mxCell id="axD1EVpp38-owQ8rnh4v-2" value="" style="endArrow=classic;html=1;rounded=0;exitX=0.5;exitY=1;exitDx=0;exitDy=0;entryX=0.111;entryY=0.259;entryDx=0;entryDy=0;entryPerimeter=0;" parent="gwxealR5jL427xhSwZlq-1" source="gwxealR5jL427xhSwZlq-12" target="axD1EVpp38-owQ8rnh4v-1" edge="1">
          <mxGeometry width="50" height="50" relative="1" as="geometry">
            <mxPoint x="460" y="290" as="sourcePoint" />
            <mxPoint x="510" y="240" as="targetPoint" />
          </mxGeometry>
        </mxCell>
        <mxCell id="axD1EVpp38-owQ8rnh4v-4" value="" style="endArrow=classic;html=1;rounded=0;entryX=0.486;entryY=0.126;entryDx=0;entryDy=0;entryPerimeter=0;" parent="gwxealR5jL427xhSwZlq-1" source="gwxealR5jL427xhSwZlq-2" target="axD1EVpp38-owQ8rnh4v-1" edge="1">
          <mxGeometry width="50" height="50" relative="1" as="geometry">
            <mxPoint x="90" y="120" as="sourcePoint" />
            <mxPoint x="203" y="171" as="targetPoint" />
          </mxGeometry>
        </mxCell>
        <mxCell id="axD1EVpp38-owQ8rnh4v-5" value="" style="endArrow=classic;html=1;rounded=0;exitX=0.5;exitY=1;exitDx=0;exitDy=0;entryX=0.88;entryY=0.25;entryDx=0;entryDy=0;entryPerimeter=0;" parent="gwxealR5jL427xhSwZlq-1" source="gwxealR5jL427xhSwZlq-15" target="axD1EVpp38-owQ8rnh4v-1" edge="1">
          <mxGeometry width="50" height="50" relative="1" as="geometry">
            <mxPoint x="100" y="130" as="sourcePoint" />
            <mxPoint x="213" y="181" as="targetPoint" />
          </mxGeometry>
        </mxCell>
        <mxCell id="axD1EVpp38-owQ8rnh4v-6" value="" style="endArrow=classic;html=1;rounded=0;exitX=0.13;exitY=0.77;exitDx=0;exitDy=0;entryX=0.5;entryY=0;entryDx=0;entryDy=0;exitPerimeter=0;" parent="gwxealR5jL427xhSwZlq-1" source="axD1EVpp38-owQ8rnh4v-1" target="gwxealR5jL427xhSwZlq-3" edge="1">
          <mxGeometry width="50" height="50" relative="1" as="geometry">
            <mxPoint x="90" y="120" as="sourcePoint" />
            <mxPoint x="203" y="171" as="targetPoint" />
          </mxGeometry>
        </mxCell>
        <mxCell id="axD1EVpp38-owQ8rnh4v-7" value="" style="endArrow=classic;html=1;rounded=0;exitX=0.55;exitY=0.95;exitDx=0;exitDy=0;entryX=0.559;entryY=0.006;entryDx=0;entryDy=0;exitPerimeter=0;entryPerimeter=0;" parent="gwxealR5jL427xhSwZlq-1" source="axD1EVpp38-owQ8rnh4v-1" target="gwxealR5jL427xhSwZlq-6" edge="1">
          <mxGeometry width="50" height="50" relative="1" as="geometry">
            <mxPoint x="206" y="212" as="sourcePoint" />
            <mxPoint x="110" y="270" as="targetPoint" />
          </mxGeometry>
        </mxCell>
        <mxCell id="axD1EVpp38-owQ8rnh4v-8" value="" style="endArrow=classic;html=1;rounded=0;exitX=0.96;exitY=0.7;exitDx=0;exitDy=0;entryX=0.5;entryY=0;entryDx=0;entryDy=0;exitPerimeter=0;" parent="gwxealR5jL427xhSwZlq-1" source="axD1EVpp38-owQ8rnh4v-1" target="gwxealR5jL427xhSwZlq-7" edge="1">
          <mxGeometry width="50" height="50" relative="1" as="geometry">
            <mxPoint x="216" y="222" as="sourcePoint" />
            <mxPoint x="120" y="280" as="targetPoint" />
          </mxGeometry>
        </mxCell>
      </root>
    </mxGraphModel>
  </diagram>
  <diagram id="y5C_6143Q0JHo4P8BsTe" name="publisher-subscriber">
    <mxGraphModel dx="1306" dy="811" grid="1" gridSize="10" guides="1" tooltips="1" connect="1" arrows="1" fold="1" page="1" pageScale="1" pageWidth="827" pageHeight="1169" math="0" shadow="0">
      <root>
        <mxCell id="0" />
        <mxCell id="1" parent="0" />
        <mxCell id="eYDP2A2Q24t6ipOZO2rj-1" value="User Management&lt;br&gt;Service" style="rounded=0;whiteSpace=wrap;html=1;fillColor=#dae8fc;strokeColor=#6c8ebf;" parent="1" vertex="1">
          <mxGeometry x="180" y="50" width="120" height="60" as="geometry" />
        </mxCell>
        <mxCell id="eYDP2A2Q24t6ipOZO2rj-2" value="Accounting Service" style="rounded=0;whiteSpace=wrap;html=1;fillColor=#f8cecc;strokeColor=#b85450;" parent="1" vertex="1">
          <mxGeometry x="40" y="260" width="120" height="60" as="geometry" />
        </mxCell>
        <mxCell id="eYDP2A2Q24t6ipOZO2rj-3" value="Mail&amp;nbsp;Service" style="rounded=0;whiteSpace=wrap;html=1;fillColor=#f8cecc;strokeColor=#b85450;" parent="1" vertex="1">
          <mxGeometry x="180" y="260" width="120" height="60" as="geometry" />
        </mxCell>
        <mxCell id="eYDP2A2Q24t6ipOZO2rj-4" value="Statistics&amp;nbsp;Service" style="rounded=0;whiteSpace=wrap;html=1;fillColor=#f8cecc;strokeColor=#b85450;" parent="1" vertex="1">
          <mxGeometry x="330" y="260" width="120" height="60" as="geometry" />
        </mxCell>
        <mxCell id="eYDP2A2Q24t6ipOZO2rj-5" value="Permission Management&lt;br style=&quot;border-color: var(--border-color);&quot;&gt;Service" style="rounded=0;whiteSpace=wrap;html=1;fillColor=#dae8fc;strokeColor=#6c8ebf;" parent="1" vertex="1">
          <mxGeometry x="20" y="50" width="120" height="60" as="geometry" />
        </mxCell>
        <mxCell id="eYDP2A2Q24t6ipOZO2rj-6" value="Audit&lt;br&gt;Service" style="rounded=0;whiteSpace=wrap;html=1;fillColor=#dae8fc;strokeColor=#6c8ebf;" parent="1" vertex="1">
          <mxGeometry x="340" y="50" width="120" height="60" as="geometry" />
        </mxCell>
        <mxCell id="eYDP2A2Q24t6ipOZO2rj-7" value="Publisher/Subscriber &lt;br&gt;Event Bus" style="ellipse;shape=cloud;whiteSpace=wrap;html=1;" parent="1" vertex="1">
          <mxGeometry x="140" y="140" width="200" height="80" as="geometry" />
        </mxCell>
        <mxCell id="eYDP2A2Q24t6ipOZO2rj-8" value="" style="endArrow=classic;html=1;rounded=0;exitX=0.5;exitY=1;exitDx=0;exitDy=0;entryX=0.111;entryY=0.259;entryDx=0;entryDy=0;entryPerimeter=0;" parent="1" source="eYDP2A2Q24t6ipOZO2rj-5" target="eYDP2A2Q24t6ipOZO2rj-7" edge="1">
          <mxGeometry width="50" height="50" relative="1" as="geometry">
            <mxPoint x="460" y="290" as="sourcePoint" />
            <mxPoint x="510" y="240" as="targetPoint" />
          </mxGeometry>
        </mxCell>
        <mxCell id="eYDP2A2Q24t6ipOZO2rj-9" value="" style="endArrow=classic;html=1;rounded=0;entryX=0.503;entryY=0.132;entryDx=0;entryDy=0;entryPerimeter=0;" parent="1" source="eYDP2A2Q24t6ipOZO2rj-1" target="eYDP2A2Q24t6ipOZO2rj-7" edge="1">
          <mxGeometry width="50" height="50" relative="1" as="geometry">
            <mxPoint x="90" y="120" as="sourcePoint" />
            <mxPoint x="203" y="171" as="targetPoint" />
          </mxGeometry>
        </mxCell>
        <mxCell id="eYDP2A2Q24t6ipOZO2rj-10" value="" style="endArrow=classic;html=1;rounded=0;exitX=0.5;exitY=1;exitDx=0;exitDy=0;entryX=0.88;entryY=0.25;entryDx=0;entryDy=0;entryPerimeter=0;" parent="1" source="eYDP2A2Q24t6ipOZO2rj-6" target="eYDP2A2Q24t6ipOZO2rj-7" edge="1">
          <mxGeometry width="50" height="50" relative="1" as="geometry">
            <mxPoint x="100" y="130" as="sourcePoint" />
            <mxPoint x="213" y="181" as="targetPoint" />
          </mxGeometry>
        </mxCell>
        <mxCell id="eYDP2A2Q24t6ipOZO2rj-11" value="" style="endArrow=classic;html=1;rounded=0;exitX=0.13;exitY=0.77;exitDx=0;exitDy=0;entryX=0.5;entryY=0;entryDx=0;entryDy=0;exitPerimeter=0;" parent="1" source="eYDP2A2Q24t6ipOZO2rj-7" target="eYDP2A2Q24t6ipOZO2rj-2" edge="1">
          <mxGeometry width="50" height="50" relative="1" as="geometry">
            <mxPoint x="90" y="120" as="sourcePoint" />
            <mxPoint x="203" y="171" as="targetPoint" />
          </mxGeometry>
        </mxCell>
        <mxCell id="eYDP2A2Q24t6ipOZO2rj-12" value="" style="endArrow=classic;html=1;rounded=0;exitX=0.532;exitY=0.937;exitDx=0;exitDy=0;entryX=0.559;entryY=0.006;entryDx=0;entryDy=0;exitPerimeter=0;entryPerimeter=0;" parent="1" source="eYDP2A2Q24t6ipOZO2rj-7" target="eYDP2A2Q24t6ipOZO2rj-3" edge="1">
          <mxGeometry width="50" height="50" relative="1" as="geometry">
            <mxPoint x="206" y="212" as="sourcePoint" />
            <mxPoint x="110" y="270" as="targetPoint" />
          </mxGeometry>
        </mxCell>
        <mxCell id="eYDP2A2Q24t6ipOZO2rj-13" value="" style="endArrow=classic;html=1;rounded=0;exitX=0.96;exitY=0.7;exitDx=0;exitDy=0;entryX=0.5;entryY=0;entryDx=0;entryDy=0;exitPerimeter=0;" parent="1" source="eYDP2A2Q24t6ipOZO2rj-7" target="eYDP2A2Q24t6ipOZO2rj-4" edge="1">
          <mxGeometry width="50" height="50" relative="1" as="geometry">
            <mxPoint x="216" y="222" as="sourcePoint" />
            <mxPoint x="120" y="280" as="targetPoint" />
          </mxGeometry>
        </mxCell>
      </root>
    </mxGraphModel>
  </diagram>
</mxfile>
